<svg width="151" height="52" viewBox="0 0 151 52" fill="none" xmlns="http://www.w3.org/2000/svg">
<path d="M20.4974 10.8926H20.4279V10.823L20.4974 10.8926Z" fill="#FFCD00"/>
<path d="M10.5278 0.919739L20.4268 10.8231H0.637817V0.919739H10.5278Z" fill="#FFCD00"/>
<path d="M90.6089 32.4558V51.3926H80.7356V32.4558H50.0993L40.226 22.5691V10.8928H20.4975L20.4279 10.8231V0.840942H50.0993V22.5691H80.7356L90.6089 32.4558Z" fill="#FFCD00"/>
<path d="M20.4279 10.8934H20.4975L30.3269 20.718V51.4448H20.4279V10.8934Z" fill="#FFCD00"/>
<path d="M20.4974 10.8926H20.4279V10.823L20.4974 10.8926Z" fill="#FFCD00"/>
<path d="M150.985 41.4987V51.3929H110.398L100.507 41.4987V31.0999H110.398V41.4987H150.985Z" fill="#FFCD00"/>
<path d="M150.985 0.840942H110.398V10.7352H150.985V0.840942Z" fill="#FFCD00"/>
<path d="M150.985 21.2033V31.0991H110.398L100.507 21.2033V10.7347H110.398V21.2033H150.985Z" fill="#FFCD00"/>
<path d="M50.0983 32.4553H40.225V51.392H50.0983V32.4553Z" fill="#FFCD00"/>
<path d="M90.6089 0.919678H80.7356V22.5691H90.6089V0.919678Z" fill="#FFCD00"/>
</svg>
